<?xml version="1.0" encoding="UTF-8"?>
<svg xmlns="http://www.w3.org/2000/svg" xmlns:xlink="http://www.w3.org/1999/xlink" id="icon" x="0px" y="0px" viewBox="0 0 1000 1000" style="enable-background:new 0 0 1000 1000;" xml:space="preserve">
<g transform="translate(1000,0) scale(-1,1)">
<path d="M469.5,340c-48.5,0-97.2,11.1-140.9,32.1L111.3,476.4l-0.1,0.1C67.1,498.1,20,526.3,20,587.5c0,26,8.3,46.6,25.4,62.7 c17,16.1,43.1,27.7,79.7,35.3c63.2,13.2,131.7,14.4,134.6,14.4l720.3,0V340H469.5z M260.2,662c-3.3-0.1-68.7-3.4-126.8-15.5 C65.7,632.3,60,608.6,60,587.5c0-31,17.3-49.9,68.7-75.1L237.9,460h133.6c17.5,0,22.4-12.3,14-28.9L380,420h-58.8l24.7-11.9 c43.2-20.6,81-30.1,123.5-30.1H940v143H440l-61.1,40H940v101H260.2z M620,470v-20c0-5.5,4.5-10,10-10h20c5.5,0,10,4.5,10,10v20 c0,5.5-4.5,10-10,10h-20C624.5,480,620,475.5,620,470z M540,470v-20c0-5.5,4.5-10,10-10h20c5.5,0,10,4.5,10,10v20 c0,5.5-4.5,10-10,10h-20C544.5,480,540,475.5,540,470z M700,470v-20c0-5.5,4.5-10,10-10h20c5.5,0,10,4.5,10,10v20 c0,5.5-4.5,10-10,10h-20C704.5,480,700,475.5,700,470z M780,470v-20c0-5.5,4.5-10,10-10h20c5.5,0,10,4.5,10,10v20 c0,5.5-4.5,10-10,10h-20C784.5,480,780,475.5,780,470z M860,470v-20c0-5.5,4.5-10,10-10h20c5.5,0,10,4.5,10,10v20 c0,5.5-4.5,10-10,10h-20C864.5,480,860,475.5,860,470z M20,720h960v40H20V720z"/>
</g>
</svg>
